<svg width="111" height="118" viewBox="0 0 111 118" fill="none" xmlns="http://www.w3.org/2000/svg">
<path d="M77.2 54C94.8 54 110 67.8 110.4 85.4C110.6 103.4 96.2 118 78.4 118C67.6 118 58 112.8 52.2 104.6L30.8 77C27.2 72.4 21.8 69.8 16 69.8H7.8C3.4 69.8 1.49012e-07 66.2 1.49012e-07 61.8C1.49012e-07 57.6 3.4 54 7.8 54H77.2ZM69.8 41.2C58.6 41.2 49.4 32.2 49.4 21C49.4 9.8 58.6 0.599996 69.8 0.599996C81 0.599996 90 9.8 90 21C90 32.2 81 41.2 69.8 41.2ZM28.8 45.8C22.6 45.8 17.6 41 17.6 34.8C17.6 28.8 22.6 23.8 28.8 23.8C34.8 23.8 39.8 28.8 39.8 34.8C39.8 41 34.8 45.8 28.8 45.8Z" fill="#111111"/>
</svg>
