<svg width="230" height="144" viewBox="0 0 230 144" fill="none" xmlns="http://www.w3.org/2000/svg">
<path d="M196.4 0.399994C214 0.399994 229 14.2 229.4 31.8C229.8 49.8 215.2 64.4 197.4 64.4H98.8C93.2 64.4 89.4 70 91.4 75.2L104.4 107.2C106.4 111.4 107.4 116 106.8 121C105.4 132 96.4 141 85.4 142.4C76.6 143.4 68.6 139.8 63.6 133.6L12.4 76.6C4.8 68.4 0.6 57.2 2.2 45C4.6 27.4 19.4 13.6 37 12.2C54.2 10.8 69.2 20.8 75.4 35.6L76 37C78.8 44 85.6 48.8 93.4 48.8H140C147.8 48.8 150.8 38.4 144 34.2L139.8 31.6C126.8 23.8 112.6 18.6 97.8 16.4C93 16.4 89.4 12.4 89.8 7.6C90.2 3.4 94 0.399994 98.2 0.399994H196.4Z" fill="#111111"/>
</svg>
